<svg width="190" height="56" viewBox="0 0 190 56" fill="none" xmlns="http://www.w3.org/2000/svg">
<g clip-path="url(#clip0_242_2904)">
<path d="M134.62 51.7803L135.11 52.8303C135.27 53.1703 135.44 53.5103 135.6 53.8303L136.1 54.8303L136.35 55.3203H141.76L142.01 54.8303L142.51 53.8303L143.01 52.8303L143.48 51.8303C143.63 51.5003 143.81 51.1103 144 50.6703C144.19 50.2303 144.37 49.8303 144.57 49.3603C144.77 48.8903 144.94 48.5103 145.1 48.1203C145.26 47.7303 145.47 47.2203 145.65 46.7703C145.83 46.3203 146.03 45.8303 146.22 45.3403C146.41 44.8503 146.6 44.3403 146.78 43.8903C146.96 43.4403 147.15 42.8903 147.33 42.4303L147.87 40.9303L148.4 39.3803L148.84 38.0903C148.99 37.6503 149.14 37.1803 149.3 36.6803L149.73 35.3203L150.18 33.8803L150.52 32.7503H143.69C143.53 33.3603 143.37 33.9603 143.2 34.5703C142.95 35.4503 142.7 36.3303 142.43 37.2003L141.76 39.3503C141.26 40.9703 140.76 42.5803 140.2 44.1803L139.31 46.7303H138.95C138.57 45.7303 138.23 44.7303 137.88 43.6503L137.43 42.2803L136.81 40.2803L136.15 38.1303C135.79 36.9403 135.43 35.7503 135.09 34.5503L134.76 33.3503L134.59 32.6903H127.59L127.93 33.8203L128.37 35.2503C128.53 35.7503 128.67 36.2503 128.81 36.6203L129.26 38.0003L129.7 39.3203C129.88 39.8603 130.06 40.3703 130.24 40.8803L130.78 42.3703L131.32 43.8203C131.5 44.3003 131.69 44.8203 131.89 45.2803L132.45 46.7003C132.65 47.1803 132.83 47.6403 133.01 48.0703C133.19 48.5003 133.35 48.8803 133.55 49.3203C133.75 49.7603 133.94 50.2303 134.12 50.6303L134.62 51.7803ZM126.47 28.6503C126.621 28.436 126.745 28.2044 126.84 27.9603C126.94 27.719 127.014 27.4675 127.06 27.2103C127.105 26.9359 127.128 26.6584 127.13 26.3803C127.13 26.2403 127.13 26.1003 127.13 25.9603C127.13 25.8203 127.13 25.6803 127.08 25.5503L126.99 25.1603C126.954 25.03 126.907 24.9029 126.85 24.7803C126.807 24.6592 126.754 24.5421 126.69 24.4303C126.629 24.3201 126.563 24.2133 126.49 24.1103C126.419 24.0069 126.338 23.9098 126.25 23.8203C126.165 23.7221 126.075 23.6287 125.98 23.5403L125.68 23.3003L125.37 23.1003C125.269 23.0306 125.162 22.9704 125.05 22.9203C124.941 22.862 124.827 22.8119 124.71 22.7703L124.35 22.6603L123.99 22.5703H123.61H123.23H122.85H122.47L122.11 22.6503L121.76 22.7703C121.528 22.8614 121.304 22.9718 121.09 23.1003L120.79 23.3003L120.49 23.5403C120.296 23.7139 120.122 23.9085 119.97 24.1203C119.822 24.3324 119.697 24.5605 119.6 24.8003C119.407 25.3008 119.312 25.8339 119.32 26.3703C119.32 26.5203 119.32 26.6603 119.32 26.8003C119.32 26.9403 119.32 27.0803 119.38 27.2103C119.401 27.3423 119.431 27.4727 119.47 27.6003C119.503 27.7303 119.546 27.8575 119.6 27.9803C119.65 28.1003 119.7 28.2103 119.76 28.3303C119.82 28.4503 119.89 28.5503 119.96 28.6503L120.2 28.9403C120.286 29.0378 120.38 29.1282 120.48 29.2103L120.77 29.4603L121.08 29.6603C121.183 29.732 121.294 29.7924 121.41 29.8403C121.52 29.8982 121.633 29.9483 121.75 29.9903L122.1 30.1003L122.46 30.1803L122.84 30.2303H123.22H123.6L123.98 30.1803L124.34 30.1003L124.7 29.9903L125.04 29.8403C125.152 29.7903 125.259 29.73 125.36 29.6603C125.467 29.5995 125.571 29.5328 125.67 29.4603L125.97 29.2103C126.157 29.0423 126.324 28.8546 126.47 28.6503ZM119.95 55.3603H126.55V32.7203H119.95V55.3603ZM98.9002 33.0403L98.2301 33.1903L97.6101 33.3503L96.9501 33.5203V55.3603H103.54V38.0603L104.25 37.9803L104.99 37.9103L105.87 37.8603H106.22C106.555 37.8608 106.889 37.8875 107.22 37.9403C107.513 37.9861 107.799 38.0701 108.07 38.1903C108.284 38.2838 108.483 38.4085 108.66 38.5603C108.838 38.7034 108.99 38.8759 109.11 39.0703C109.177 39.1748 109.234 39.2853 109.28 39.4003C109.343 39.5228 109.396 39.6498 109.44 39.7803C109.49 39.9203 109.54 40.0803 109.59 40.2503C109.64 40.4203 109.67 40.5703 109.7 40.7503C109.73 40.9303 109.76 41.1103 109.78 41.3103C109.8 41.5103 109.83 41.7203 109.85 41.9303C109.87 42.1403 109.85 42.3603 109.85 42.6103C109.85 42.8603 109.85 43.1003 109.85 43.3403V55.3403H116.44V42.0403C116.44 41.8603 116.44 41.6603 116.44 41.4603V40.9103C116.44 40.7203 116.44 40.5403 116.39 40.3803C116.34 40.2203 116.34 40.0303 116.32 39.8603C116.3 39.6903 116.27 39.5303 116.24 39.3603L116.15 38.8703L116.03 38.3903L115.91 37.9303C115.86 37.7803 115.81 37.6303 115.75 37.4803C115.69 37.3303 115.64 37.1703 115.58 37.0203L115.4 36.6203L115.18 36.2103C115.11 36.0803 115.04 35.9503 114.96 35.8303L114.71 35.4703L114.43 35.1103C114.339 34.9867 114.238 34.8698 114.13 34.7603L113.82 34.4503C113.72 34.3503 113.6 34.2603 113.48 34.1603L113.11 33.8703L112.71 33.6103L112.29 33.3703L111.84 33.1603L111.38 32.9603L110.89 32.7803L110.35 32.6303L109.8 32.5003L109.22 32.4003C109.02 32.4003 108.81 32.3403 108.6 32.3103L107.97 32.2603H107.29H105.95H105.21C104.97 32.2603 104.73 32.2603 104.5 32.2603H103.85L103.18 32.3203L102.51 32.3903L101.9 32.4603L100.62 32.6603L100.02 32.7703L99.4302 32.8803L98.9002 33.0403ZM91.3402 55.0403L92.0201 54.8903L92.6301 54.7403L93.2901 54.5703V32.7203H86.7001V50.0003H86.5201C86.2001 50.0003 85.8501 50.0803 85.5201 50.1103H85.2601H84.7201H84.0301C83.6951 50.1116 83.3606 50.0849 83.0301 50.0303C82.7449 49.9785 82.4665 49.8946 82.2001 49.7803L81.8601 49.5903C81.7522 49.5285 81.6516 49.4547 81.5601 49.3703C81.4694 49.2911 81.3857 49.2041 81.3101 49.1103C81.2368 49.0237 81.1668 48.9237 81.1001 48.8103C81.0341 48.6969 80.974 48.5801 80.9201 48.4603L80.7701 48.0703C80.7235 47.917 80.6735 47.757 80.6202 47.5903C80.6202 47.4303 80.5401 47.2503 80.5101 47.0803C80.4801 46.9103 80.4502 46.7103 80.4302 46.5103C80.4102 46.3103 80.3801 46.1103 80.3601 45.8803C80.3401 45.6503 80.3601 45.4503 80.3601 45.2003C80.3601 44.9503 80.3601 44.7103 80.3601 44.4603V32.7203H73.7701V45.8603C73.7701 46.0403 73.7701 46.2403 73.7701 46.4403V47.0003C73.7701 47.1903 73.7701 47.3603 73.8201 47.5203C73.8701 47.6803 73.8201 47.8803 73.8901 48.0603C73.9601 48.2403 73.9401 48.4003 73.9701 48.5603L74.0601 49.0503L74.1801 49.5503C74.1801 49.7103 74.2601 49.8703 74.3101 50.0303C74.3601 50.1903 74.4001 50.3303 74.4501 50.4803C74.5001 50.6303 74.5601 50.7703 74.6201 50.9103C74.6801 51.0503 74.7501 51.2103 74.8201 51.3603L74.9001 51.5403L75.0301 51.7703C75.1001 51.9003 75.1801 52.0403 75.2601 52.1603C75.3333 52.288 75.4134 52.4115 75.5001 52.5303C75.5901 52.6603 75.6801 52.7803 75.7801 52.9003C75.9675 53.1346 76.1713 53.3552 76.3901 53.5603C76.613 53.773 76.8502 53.9701 77.1001 54.1503L77.4901 54.4103L77.9201 54.6603L78.3701 54.8803L78.8301 55.0803C79.1552 55.2166 79.4894 55.3303 79.8301 55.4203C80.2001 55.5203 80.5902 55.6003 80.9902 55.6703C81.3902 55.7403 81.8101 55.7803 82.2501 55.8103C82.6901 55.8403 83.1301 55.8603 83.6001 55.8603C84.5401 55.8603 85.4501 55.8603 86.3501 55.7603C87.2501 55.6603 88.1301 55.5903 88.9801 55.4503L89.5902 55.3503L90.1901 55.2503L90.7801 55.1403L91.3402 55.0403ZM68.9501 40.2403L71.4701 37.4303L71.7301 36.7803V32.7203H53.7301V38.2503H63.1001L62.8301 38.5803C61.9201 39.6703 61.0301 40.7603 60.1501 41.8603L58.7501 43.6203L58.0301 44.5503L57.3401 45.4503L56.6801 46.3303L56.0301 47.2103L55.3901 48.1103L55.0701 48.5603L54.7801 48.9803L54.5101 49.3803L53.9801 50.2003L53.7701 50.5203L53.3501 51.2103L53.2201 51.7003V55.3603H71.9501V49.8203H61.2601C61.7601 49.1203 62.2601 48.4203 62.7801 47.7303C63.1401 47.2603 63.5001 46.8003 63.8701 46.3403L64.6301 45.3403L65.3701 44.4303L66.1301 43.5103L66.8701 42.6403L67.6001 41.7903L68.3101 40.9703L68.9501 40.2403ZM43.3401 32.2403L42.7101 32.1903H42.0301H40.7901H40.2501H39.6901L39.1501 32.2403L38.1501 32.3603L37.1501 32.5003L36.6601 32.5803L36.2101 32.6603L35.7701 32.7403C35.1401 32.8803 34.5201 33.0403 33.9001 33.1903H33.8301L34.6801 38.5303L34.8901 38.4703L36.0801 38.1603L36.4201 38.0803L36.7901 38.0003L37.1601 37.9403L37.5301 37.8803L37.9301 37.8203H38.3201H38.7101H39.1101H39.5401H39.9101H41.2901L41.8301 37.8703L42.3001 37.9403L42.7301 38.0503L43.1301 38.1803C43.2505 38.229 43.3675 38.2857 43.4801 38.3503C43.5792 38.4008 43.673 38.4612 43.7601 38.5303C43.8522 38.5931 43.9361 38.667 44.0101 38.7503C44.1657 38.9006 44.3032 39.0684 44.4201 39.2503C44.5403 39.4274 44.6378 39.6189 44.7101 39.8203C44.7924 40.0371 44.8527 40.2615 44.8901 40.4903C44.9312 40.7416 44.9513 40.9958 44.9501 41.2503V41.6703L44.5101 41.5803L43.9501 41.3603L43.5202 41.3003L43.0202 41.2503H42.4801H41.8901H41.3101H40.4201L39.5101 41.3203C39.1968 41.3203 38.8968 41.3603 38.6101 41.4403C38.3243 41.4791 38.0406 41.5325 37.7601 41.6003L36.9301 41.8003C36.6601 41.8803 36.3901 41.9703 36.1401 42.0703C35.8901 42.1703 35.6301 42.2803 35.3901 42.4003C35.1501 42.5203 34.9201 42.6403 34.6901 42.7803C34.5796 42.8479 34.4728 42.9213 34.3701 43.0003L34.1301 43.1703L34.0601 43.2303L33.7501 43.4903L33.4801 43.7503C33.4001 43.8403 33.3101 43.9303 33.2301 44.0303C33.1501 44.1303 33.0601 44.2303 32.9801 44.3403C32.9001 44.4503 32.8301 44.5503 32.7601 44.6503L32.5401 45.0003L32.3601 45.3503C32.3001 45.4803 32.2401 45.6103 32.1901 45.7403C32.1401 45.8703 32.1001 46.0003 32.0501 46.1403C32.0001 46.2803 31.9701 46.4103 31.9401 46.5403C31.9101 46.6703 31.8801 46.8203 31.8601 46.9703C31.8401 47.1203 31.8101 47.2703 31.7901 47.4303C31.7701 47.5903 31.7901 47.7503 31.7901 47.9103C31.7901 48.0703 31.7901 48.2203 31.7901 48.3803C31.7901 48.7303 31.7901 49.0603 31.7901 49.3803C31.7901 49.7003 31.8701 50.0003 31.9201 50.2903C31.9701 50.5803 31.9801 50.5803 32.0201 50.7203C32.0522 50.8592 32.0923 50.9961 32.1401 51.1303C32.1401 51.2603 32.2301 51.3903 32.2801 51.5203C32.3301 51.6503 32.3901 51.7703 32.4401 51.8903L32.6301 52.2403C32.6901 52.3503 32.7601 52.4603 32.8301 52.5703C32.9001 52.6803 32.9801 52.7903 33.0501 52.8903L33.2901 53.1903L33.5601 53.4803L33.8301 53.7403L34.1201 53.9803L34.4401 54.2203L34.7801 54.4303L35.1301 54.6303L35.4901 54.8103L35.8701 54.9803L36.2601 55.1303L36.6701 55.2603L37.1101 55.3903L37.5301 55.4903L37.9901 55.5803H38.2701H38.4601L38.9401 55.6503L39.4101 55.7003H39.9101H40.4201H40.9801H42.2801H43.1601H43.9601H44.6901L45.4101 55.6503L46.1001 55.5803L46.7501 55.5003L47.3801 55.4003L48.5501 55.2003L49.9901 54.9303L51.2801 54.6803V41.3603C51.2801 41.0003 51.2801 40.6603 51.2801 40.3603C51.2801 40.0603 51.2301 39.7003 51.1901 39.3603C51.1901 39.1903 51.1901 39.0403 51.1201 38.8903C51.0501 38.7403 51.0701 38.5903 51.0401 38.4303L50.9501 38.0003C50.9101 37.8403 50.8701 37.6903 50.8301 37.5503C50.8301 37.4003 50.7501 37.2603 50.7001 37.1203C50.6501 36.9803 50.6101 36.8503 50.5601 36.7203L50.3801 36.3203C50.3201 36.1903 50.2601 36.0703 50.1901 35.9503L49.9801 35.5903L49.7401 35.2403L49.6301 35.0803L49.4801 34.9103L49.2101 34.6003L48.9001 34.2903L48.5801 34.0203L48.2401 33.7703C48.1215 33.6834 47.9979 33.6032 47.8701 33.5303L47.4801 33.3003L47.0501 33.0903C46.9101 33.0303 46.7601 32.9603 46.6101 32.9103L46.1601 32.7403C46.0002 32.6799 45.8365 32.6298 45.6701 32.5903L45.1401 32.4503L44.5901 32.3403L44.0301 32.2503L43.3401 32.2403ZM43.6501 50.6503H42.7601H41.4301H41.0701H40.7101L40.3601 50.5803L40.0401 50.5103L39.7301 50.4103L39.4501 50.2903L39.2101 50.1703L39.1301 50.1203C39.0693 50.0827 39.0124 50.0391 38.9601 49.9903C38.9023 49.9491 38.8487 49.9022 38.8001 49.8503L38.6401 49.6503C38.5909 49.5771 38.5475 49.5002 38.5101 49.4203C38.4708 49.3395 38.4374 49.256 38.4101 49.1703C38.3821 49.0816 38.3588 48.9915 38.3401 48.9003C38.3401 48.7903 38.3401 48.6903 38.2901 48.5803C38.2401 48.4703 38.2901 48.3503 38.2901 48.2203V47.8703V47.6903V47.5503V47.4003V47.2703L38.3601 47.1403L38.4301 47.0203L38.5201 46.9003L38.6101 46.7903L38.7001 46.6803L38.8101 46.5803L38.9201 46.5003C39.0105 46.4279 39.1076 46.3642 39.2101 46.3103L39.3201 46.2503L39.6101 46.1203L39.9301 46.0103L40.2901 45.9203L40.6601 45.8603L41.0601 45.8103H41.4701H41.8801H42.3201C42.7401 45.8103 43.1101 45.8103 43.5301 45.8803L44.7401 46.0403V50.6403C44.5201 50.5603 44.0601 50.6203 43.6801 50.6203L43.6501 50.6503ZM189.19 54.7203V54.6003L188.27 49.6003L187.19 49.8903L186.91 49.9703L186.49 50.0603L186.16 50.1203L185.88 50.1703H185.64H185.37H184.85H184.57H184.08H183.57C183.416 50.1608 183.262 50.1408 183.11 50.1103C182.975 50.0909 182.841 50.0608 182.71 50.0203C182.59 49.9909 182.473 49.9507 182.36 49.9003C182.151 49.8172 181.955 49.7026 181.78 49.5603C181.619 49.4149 181.481 49.2464 181.37 49.0603C181.311 48.967 181.257 48.8702 181.21 48.7703C181.157 48.663 181.111 48.5528 181.07 48.4403L180.95 48.0903C180.95 47.9603 180.88 47.8403 180.85 47.7103C180.82 47.5803 180.8 47.4403 180.78 47.3003L180.72 46.8803V46.4403C180.72 46.2703 180.72 46.1103 180.72 45.9403V38.2003H188.34V32.6703H180.72V26.0503L174.13 27.1203V46.5303V47.1003V47.6103C174.13 47.7903 174.13 47.9503 174.13 48.1103L174.18 48.5903C174.18 48.7603 174.23 48.9203 174.25 49.0803L174.34 49.5503L174.43 50.0103C174.43 50.1503 174.5 50.3003 174.54 50.4503C174.58 50.6003 174.63 50.7403 174.68 50.8803C174.723 51.0195 174.773 51.1564 174.83 51.2903C174.83 51.4303 174.94 51.5603 175 51.6903L175.19 52.0703L175.4 52.4303L175.63 52.7703L175.88 53.1003C175.97 53.2103 176.06 53.3203 176.16 53.4203L176.45 53.7103L176.76 53.9803C176.87 54.0703 176.98 54.1603 177.1 54.2403C177.22 54.3203 177.33 54.4103 177.46 54.4903L177.84 54.7103C177.96 54.7803 178.1 54.8403 178.24 54.9103L178.66 55.1003L179.12 55.2703L179.39 55.3603L179.59 55.4103L180.09 55.5303L180.61 55.6303L181.17 55.7103L181.75 55.7603H182.38H183.99H184.45H184.9L185.32 55.7103L185.72 55.6603L186.1 55.5903L186.48 55.5003L186.81 55.4203L187.15 55.3303L187.53 55.2203L187.82 55.1303L188.45 54.9203L189.19 54.7203Z" fill="#03C974"/>
<path d="M36.6704 26.8806C35.1948 27.3286 33.687 27.6629 32.1604 27.8806C31.033 28.0377 29.8981 28.1345 28.7604 28.1706C28.6204 54.6506 0.470376 45.6506 7.68038 28.1206C8.33307 26.4614 9.12245 24.8592 10.0404 23.3306C7.26464 21.5825 4.79226 19.3938 2.72039 16.8506C-3.46961 8.30062 1.82038 0.0706434 9.42038 0.000643434C13.9104 -0.0493566 19.2304 2.81064 23.4204 10.0006C24.5362 9.33121 25.6879 8.72362 26.8704 8.18064C45.0804 -0.819364 52.9804 21.2806 36.6804 26.9406L36.6704 26.8806ZM11.8104 22.9406C-3.18962 43.8706 29.1304 54.2406 27.5104 26.9906C30.4918 27.0192 33.4608 26.6047 36.3204 25.7606C51.8304 19.7606 42.2504 -1.56938 22.9804 11.7606C9.61038 -12.2794 -11.6396 10.3606 11.8004 22.8606L11.8104 22.9406ZM14.4704 20.6406L14.6404 20.7206L14.8104 20.7906L14.9804 20.8606L15.1504 20.9306L15.3204 21.0006L15.4904 21.0706L15.6504 21.1306L15.8204 21.2006L15.9804 21.2606L16.1404 21.3206L16.3104 21.3906L16.4704 21.4506L16.6304 21.5006L16.7904 21.5606L16.9504 21.6206L17.1004 21.6706L17.2604 21.7306H17.4204L17.5704 21.7806L17.7304 21.8306L17.8904 21.8806L18.0404 21.9306H18.1904L18.3504 21.9806H18.5004L18.6604 22.0306H18.8104L18.9604 22.0806H19.1204H19.2704H19.4204H19.5804H19.7304H19.8804H20.0404H20.1904H20.3504H20.5004H20.6604H20.8104H20.9704H21.1204H21.2804H21.4404H21.6004H21.7604L22.0804 22.1406H22.2404L22.5704 22.2006H22.7304H22.9004H23.0704H23.2304H23.4004H23.5704L23.9204 22.2606L24.2704 22.3106H24.4504H24.6304H24.8104V22.2006V22.0906V21.9706V21.8606V21.7506V21.6406V21.5306V21.4206V21.3106V21.2006V21.0906V20.9706V20.8606V20.7506V20.6406V20.5306V20.4206V20.3106V20.2006V20.0906V19.9906V19.8806V19.7706V19.6606V19.5506V19.4406V19.3306V19.2206V19.1106V19.0106V18.9006V18.7906V18.6806V18.5706V18.4706V18.3606V18.2506V18.1506V18.0406V17.9306V17.8306V17.7206V17.6106V17.5106V17.4006V17.3006V17.1906V17.0906V16.9806V16.8806V16.7706L24.7604 16.6706V16.5706L24.7104 16.4606V16.3606V16.2606L24.6604 16.1506V16.0506V15.9506V15.8406V15.7406V15.6406L24.6104 15.5406V15.4406L25.7704 13.3706L25.6504 13.4706L25.5204 13.5606L25.4004 13.6606L25.2804 13.7506L25.1504 13.8506L25.0304 13.9506L24.9104 14.0406L24.7904 14.1406L24.6704 14.2406L24.5504 14.3406L24.4304 14.4306L24.3104 14.5306L24.1904 14.6306L24.0704 14.7306L23.9504 14.8306L23.8404 14.9306L23.7204 15.0306C22.7204 15.8606 21.8004 16.7306 20.8904 17.6306L20.7904 17.7306L20.6904 17.8306L20.5904 17.9306L20.4904 18.0306L20.3904 18.1306L20.3004 18.2306L20.2004 18.3306L20.1104 18.4306L20.0104 18.5306L19.9204 18.6206L19.8204 18.7206L19.7304 18.8206L19.6404 18.9206L19.5504 19.0206L19.4604 19.1106L19.3704 19.2106L19.2804 19.3106L19.1904 19.4006L19.1104 19.5006L19.0204 19.5906L18.9304 19.6906L14.4704 20.6406ZM40.8604 13.3306C40.5252 12.6808 40.0822 12.0924 39.5504 11.5906C39.7136 12.0672 39.8242 12.5601 39.8804 13.0606C39.9504 13.4606 40.7004 13.7106 40.8704 13.2506L40.8604 13.3306ZM26.6104 20.3606V20.4306V20.5006L26.6804 20.7606V20.8206V20.9306V21.0406V21.1006V21.1506V21.2506V21.3606V21.5406V21.6306V21.8006V21.9706V22.0206V22.1006V22.3606V22.4506V22.5006V22.6906V22.7506V23.0906V23.2106V23.4206V23.4906V23.6406V23.7206C31.9804 24.3106 35.6804 23.3906 37.9604 21.7806C38.484 21.4406 38.8769 20.9331 39.0748 20.341C39.2728 19.7489 39.2642 19.1072 39.0504 18.5206C38.8642 18.0886 38.5726 17.7102 38.2022 17.4202C37.8317 17.1301 37.3945 16.9377 36.9304 16.8606C36.5704 16.7506 36.2104 16.9406 35.5504 16.7406C35.3178 16.6448 35.0768 16.5712 34.8304 16.5206L34.4804 16.4706C34.2904 16.4706 34.1104 16.4706 34.0804 16.2206C34.0504 15.9706 34.0804 16.0906 33.7204 15.8506C33.3604 15.6106 33.5704 15.3806 33.4404 15.2106C33.0904 14.7506 33.5704 14.6406 33.8804 14.6506C34.5028 14.716 35.1293 14.5717 35.6604 14.2406C35.9604 14.0406 35.8604 14.0106 36.0404 13.7106C36.2204 13.4106 36.9104 13.4206 37.1804 13.3706C37.3776 13.3204 37.5781 13.2836 37.7804 13.2606C37.9204 12.8206 38.2204 12.5806 38.3904 12.1606C38.5604 11.7406 38.4704 11.5106 38.6304 11.1606C35.7004 8.76062 30.3004 8.46064 23.6304 13.9606L23.7604 14.2706V14.3606V14.4106V14.4606V14.5106V14.5606V14.6106V14.6606V14.7106V14.7606V14.8106V14.8606V14.9106V14.9606V16.3606V16.5206V16.5806V16.6506V16.7106V16.7706V16.8406V16.9006V16.9606V17.0306V17.0906V17.1506V17.2106V17.2806V17.3406V17.4006V17.4606V17.5206V17.5906V17.6506V17.7106V17.7706V17.8306V17.8906V17.9506V18.0106V18.0706V18.1306V18.1906V18.2506V18.3106V18.3706V18.4306V18.4906V18.5506V18.6106V18.6606V18.7206V18.7806V18.8406V18.8906V18.9506V19.0106V19.0706V19.1306V19.3606V19.4206V19.4806V19.5306V19.5906V19.6406V19.7006V19.7606V19.8106V19.8606V19.9206V20.0206V20.0806L26.6104 20.3606ZM25.0104 24.3106V24.4806C25.7297 27.6253 25.7774 30.8863 25.1504 34.0506C24.8404 35.3606 24.3704 36.9506 22.6204 35.9206C22.2405 35.693 21.9023 35.4021 21.6204 35.0606L21.7704 34.8506L21.8704 34.7106V34.6506L21.9904 34.5606L22.0704 34.5006L22.3504 34.2906V34.2406C22.6066 34.0629 22.7993 33.8078 22.9 33.5127C23.0008 33.2176 23.0044 32.8979 22.9104 32.6006C22.8074 32.3387 22.6622 32.0955 22.4804 31.8806C22.2304 31.5706 22.2204 31.5306 21.8404 31.4506C21.8938 31.5765 21.9645 31.6943 22.0504 31.8006L22.2704 32.1306C22.3841 32.3025 22.4362 32.5078 22.418 32.7131C22.3998 32.9184 22.3125 33.1114 22.1704 33.2606L22.1004 33.3506H21.9904L21.6704 33.2706C21.2904 33.1506 20.8504 32.9906 20.3804 32.8506C19.8431 32.6858 19.2821 32.6114 18.7204 32.6306C18.4407 32.6535 18.1617 32.5794 17.9304 32.4206C17.8733 32.3898 17.8196 32.3529 17.7704 32.3106C17.6196 32.1738 17.4943 32.0113 17.4004 31.8306L17.3404 31.7306C17.3279 31.6922 17.3111 31.6553 17.2904 31.6206C17.2133 31.4039 17.2133 31.1673 17.2904 30.9506C17.3336 30.8241 17.3978 30.7058 17.4804 30.6006L17.5504 30.4806C17.5005 30.4919 17.453 30.5123 17.4104 30.5406C17.2191 30.7115 17.0726 30.9266 16.9837 31.1672C16.8948 31.4077 16.8662 31.6664 16.9004 31.9206C16.9141 32.1377 16.9717 32.3498 17.0697 32.544C17.1677 32.7382 17.304 32.9106 17.4704 33.0506L17.6804 33.2406L17.8004 33.3506C17.2901 34.0752 17.0559 34.9585 17.1404 35.8406C17.058 36.0017 16.9574 36.1527 16.8404 36.2906L16.5604 36.5706C15.2704 37.8106 16.5604 38.5706 17.5604 38.4206C19.7504 38.1306 20.8604 41.5706 16.6704 41.0406C11.5504 40.3906 7.34038 33.9306 14.3104 24.4006L14.4604 24.1806C17.6462 25.3815 20.9518 26.2364 24.3204 26.7306L25.0104 24.3106Z" fill="#03C974"/>
<path fill-rule="evenodd" clip-rule="evenodd" d="M14.2303 19.1305L15.9703 17.1305L16.4603 16.6405L16.6303 16.4705L17.0603 16.0705L17.4403 15.7305L17.6803 15.5205L18.1303 15.1305L18.4903 14.8205L18.7403 14.6105L18.8703 14.5005L20.4503 13.4405C17.4503 4.94052 12.6003 2.44054 8.90028 3.18054C4.56028 4.03054 6.02028 7.09055 7.43028 6.03055C7.98888 5.59541 8.64172 5.29726 9.33638 5.16006C10.031 5.02287 10.7482 5.05044 11.4303 5.24054C13.4303 5.95054 12.4303 6.97054 13.1803 7.80054C13.5003 8.18054 13.5203 8.21052 13.7703 8.47052C11.9403 8.18052 10.8603 9.73054 9.56029 10.9605C7.21029 13.1805 5.32029 11.8505 3.80029 10.9605C4.35029 14.1505 7.02029 17.7305 13.0603 20.5105L13.2803 20.2605L14.2303 19.1305Z" fill="#03C974"/>
<path fill-rule="evenodd" clip-rule="evenodd" d="M157.25 46.2698H171.61V45.9698C171.61 45.6398 171.67 45.2898 171.67 44.9698V44.6598V44.3298V43.7398C171.67 43.2698 171.67 42.8098 171.67 42.3698C171.67 41.9298 171.59 41.4898 171.53 41.0698C171.47 40.6498 171.4 40.2398 171.32 39.8598C171.24 39.4798 171.13 39.0898 171.01 38.7298C170.901 38.3886 170.771 38.0546 170.62 37.7298C170.478 37.4043 170.318 37.0871 170.14 36.7798C169.96 36.4698 169.77 36.1798 169.57 35.8998C169.364 35.6287 169.143 35.3684 168.91 35.1198C168.449 34.6278 167.933 34.1915 167.37 33.8198C166.805 33.447 166.201 33.1352 165.57 32.8898C164.921 32.6466 164.252 32.4625 163.57 32.3398C162.823 32.2171 162.067 32.1569 161.31 32.1598H160.81C160.63 32.1598 160.46 32.1598 160.28 32.1598L159.76 32.2198L159.27 32.3098L158.77 32.4098L158.27 32.5498L157.77 32.7098L157.28 32.8898L156.81 33.0898L156.33 33.3198L155.88 33.5698C155.73 33.6598 155.58 33.7498 155.44 33.8498L155.01 34.1398L154.6 34.4598C154.46 34.5798 154.32 34.6898 154.19 34.8198C154.06 34.9498 153.94 35.0498 153.82 35.1698C153.7 35.2898 153.56 35.4298 153.45 35.5598C153.34 35.6898 153.21 35.8298 153.1 35.9698C152.99 36.1098 152.87 36.2598 152.77 36.3998C152.67 36.5398 152.56 36.6998 152.46 36.8598C152.36 37.0198 152.26 37.1798 152.17 37.3398C152.08 37.4998 151.98 37.6698 151.89 37.8498C151.8 38.0298 151.72 38.1798 151.64 38.3598C151.56 38.5398 151.47 38.7298 151.39 38.9198C151.234 39.3086 151.101 39.7059 150.99 40.1098C150.867 40.5299 150.77 40.9574 150.7 41.3898C150.617 41.836 150.56 42.2868 150.53 42.7398C150.49 43.2131 150.47 43.6931 150.47 44.1798C150.47 44.3898 150.47 44.5898 150.47 44.7798V45.3998C150.47 45.6064 150.49 45.8064 150.53 45.9998C150.53 46.1898 150.58 46.3898 150.61 46.5798C150.64 46.7698 150.67 46.9698 150.71 47.1598C150.75 47.3498 150.78 47.5298 150.83 47.7198C150.88 47.9098 150.92 48.0898 150.97 48.2698C151.02 48.4498 151.08 48.6298 151.14 48.8198L151.32 49.3298C151.39 49.5098 151.47 49.6798 151.54 49.8598L151.78 50.3498C151.86 50.5098 151.95 50.6698 152.04 50.8198L152.33 51.2798L152.64 51.7098L152.98 52.1398L153.27 52.4698L153.33 52.5298C153.456 52.6705 153.589 52.8041 153.73 52.9298L154.12 53.2798L154.55 53.6198C154.698 53.7344 154.851 53.8412 155.01 53.9398C155.17 54.0531 155.33 54.1531 155.49 54.2398C155.65 54.3398 155.82 54.4298 156 54.5198L156.53 54.7798C156.7 54.8598 156.88 54.9398 157.07 55.0098C157.26 55.0902 157.453 55.1603 157.65 55.2198C157.846 55.2916 158.047 55.3517 158.25 55.3998L158.88 55.5498L159.51 55.6798L160.19 55.7798L160.88 55.8498H161.61H162.96H163.55H164.15L164.75 55.7998L165.33 55.7298L165.9 55.6498L166.46 55.5598L166.99 55.4698L167.49 55.3798L167.99 55.2698L168.45 55.1498L168.9 55.0198L169.32 54.8898L169.7 54.7598L170.37 54.4998L169.48 49.1198C168.9 49.3098 168.35 49.4898 167.76 49.6498L167.41 49.7298L167 49.8198L166.6 49.8998L166.19 49.9798L165.77 50.0398L165.33 50.0998H164.92H164.49H164.05H163.2C162.776 50.1025 162.352 50.0791 161.93 50.0298C161.546 49.9827 161.166 49.9126 160.79 49.8198L160.27 49.6598C160.107 49.6017 159.947 49.5349 159.79 49.4598C159.639 49.3965 159.492 49.323 159.35 49.2398L158.94 48.9798C158.81 48.8798 158.68 48.7798 158.57 48.6798C158.453 48.5808 158.343 48.4739 158.24 48.3598C158.138 48.2548 158.041 48.1447 157.95 48.0298L157.71 47.6698C157.64 47.5398 157.57 47.4098 157.51 47.2798C157.45 47.1471 157.4 47.01 157.36 46.8698C157.329 46.7846 157.302 46.6978 157.28 46.6098L157.22 46.3498L157.25 46.2698ZM158.02 39.6298C158.14 39.411 158.285 39.2064 158.45 39.0198C158.528 38.9249 158.612 38.8347 158.7 38.7498L158.99 38.5098C159.092 38.433 159.199 38.3629 159.31 38.2998C159.421 38.2264 159.538 38.1628 159.66 38.1098L160.03 37.9598L160.45 37.8598C160.598 37.8241 160.749 37.8007 160.9 37.7898H161.4H161.92L162.39 37.8598L162.81 37.9798C162.931 38.0194 163.048 38.0696 163.16 38.1298C163.39 38.2484 163.608 38.3891 163.81 38.5498C164 38.6982 164.174 38.8657 164.33 39.0498L164.55 39.3498L164.63 39.4798L164.73 39.6598C164.79 39.7898 164.85 39.8998 164.88 39.9898C164.932 40.1064 164.976 40.2267 165.01 40.3498C165.054 40.4776 165.091 40.6078 165.12 40.7398C165.12 40.8398 165.17 40.9598 165.19 41.1098C165.218 41.235 165.238 41.3619 165.25 41.4898H157.36C157.36 41.3764 157.39 41.2464 157.45 41.0998L157.56 40.7098L157.69 40.3098C157.732 40.1831 157.782 40.0595 157.84 39.9398C157.892 39.8316 157.952 39.7279 158.02 39.6298Z" fill="#03C974"/>
</g>
<defs>
<clipPath id="clip0_242_2904">
<rect width="190" height="56" fill="white"/>
</clipPath>
</defs>
</svg>
